Coordinates
version=1
nRows=7
nColumns=40
inDegrees=yes

Units are S.I. units (second, meters, Newtons, ...)
Angles are in degrees.

endheader
time	pelvis_tilt	pelvis_list	pelvis_rotation	pelvis_tx	pelvis_ty	pelvis_tz	hip_flexion_r	hip_adduction_r	hip_rotation_r	knee_angle_r	knee_angle_r_beta	ankle_angle_r	subtalar_angle_r	mtp_angle_r	hip_flexion_l	hip_adduction_l	hip_rotation_l	knee_angle_l	knee_angle_l_beta	ankle_angle_l	subtalar_angle_l	mtp_angle_l	lumbar_extension	lumbar_bending	lumbar_rotation	arm_flex_r	arm_add_r	arm_rot_r	elbow_flex_r	pro_sup_r	wrist_flex_r	wrist_dev_r	arm_flex_l	arm_add_l	arm_rot_l	elbow_flex_l	pro_sup_l	wrist_flex_l	wrist_dev_l
     16.40528571	     -5.29558282	     -4.45784440	      3.07290486	      0.75931266	      0.93172425	      0.50375052	     11.59184637	      2.52252114	    -18.34988444	     13.13484435	     13.13484435	      8.98978379	      3.16579904	     -5.89767537	     31.77469178	    -10.86991161	      1.05719491	     50.18101922	     50.18101922	     11.69167312	    -17.70381180	     12.35762288	     -9.91710617	      7.72016653	      2.96210617	     30.96850566	    -14.75977356	     -5.52985137	     48.54952297	     45.83404132	      0.00000000	      0.00000000	      0.37593361	     -7.56286102	     -1.07220499	     29.96854477	     45.88505441	      0.00000000	      0.00000000
     16.41807143	     -5.35135180	     -4.44063799	      3.34757219	      0.75870098	      0.93176966	      0.50366262	     11.01192138	      2.60169545	    -18.41049428	     12.68797578	     12.68797578	      9.14212503	      3.05353243	     -6.02432405	     32.13692247	    -10.56747231	      1.24828010	     46.89848948	     46.89848948	     11.73554084	    -17.32566912	     12.24070342	     -9.91530316	      7.64836987	      2.84163095	     32.83063235	    -14.85944522	     -5.10668665	     50.80907930	     45.73990693	      0.00000000	      0.00000000	     -0.70609099	     -7.36871160	     -0.78552211	     28.98178861	     45.82654044	      0.00000000	      0.00000000
     16.43085714	     -5.46116040	     -4.50621879	      3.59810418	      0.75809342	      0.93148845	      0.50345212	     10.51448165	      2.76374229	    -18.39775158	     12.25299377	     12.25299377	      9.11777002	      2.80178369	     -6.64237815	     32.41801888	    -10.33382218	      1.42640662	     43.33456358	     43.33456358	     11.10147100	    -16.93368060	     10.29593057	     -9.94294896	      7.65847635	      3.43619540	     33.47673885	    -16.26926660	     -3.40780621	     55.72160096	     45.48804641	      0.00000000	      0.00000000	     -1.24957546	     -7.09321043	      0.21595682	     27.69722540	     45.66994159	      0.00000000	      0.00000000
     16.44364286	     -5.53274746	     -4.51905588	      3.85116276	      0.75751952	      0.93122300	      0.50306792	     10.05259750	      2.82505421	    -18.41863528	     12.01116945	     12.01116945	      9.36739153	      2.63590153	     -6.71411779	     32.58190930	     -9.97701976	      1.65382132	     39.75183419	     39.75183419	     11.22646207	    -16.15537824	     10.42381348	     -9.92668696	      7.61099728	      3.29192477	     35.52433792	    -16.18526977	     -3.52414789	     57.30372568	     45.44770032	      0.00000000	      0.00000000	     -2.36330765	     -6.92651870	      0.47729075	     27.08391363	     45.61152337	      0.00000000	      0.00000000
     16.45642857	     -5.63849138	     -4.55225989	      4.08147208	      0.75698488	      0.93076084	      0.50256165	      9.67179587	      2.88644577	    -18.43173230	     11.85540812	     11.85540812	      9.64269390	      2.44606828	     -6.80025706	     32.70370199	     -9.65099689	      1.78698932	     36.14757608	     36.14757608	     11.37461973	    -15.07456630	     10.52363377	     -9.87432545	      7.58569529	      3.26282136	     37.44916778	    -16.22291971	     -3.57307225	     58.90815739	     45.40367877	      0.00000000	      0.00000000	     -3.42774030	     -6.75475438	      0.67531681	     26.62044787	     45.56254011	      0.00000000	      0.00000000
     16.46921429	     -5.72784667	     -4.71110338	      4.34580639	      0.75647489	      0.93011494	      0.50193154	      9.29239275	      3.07559265	    -18.42738170	     11.72290718	     11.72290718	      9.89987372	      2.21212609	     -6.85311383	     32.81457167	     -9.41508154	      2.00262372	     32.64845457	     32.64845457	     11.34593483	    -13.81605369	     10.17085577	     -9.87892984	      7.71638553	      3.07850179	     39.22307722	    -16.20904312	     -3.42945264	     61.32434018	     45.32494776	      0.00000000	      0.00000000	     -4.55935346	     -6.57939048	      1.02068946	     26.33809256	     45.48753837	      0.00000000	      0.00000000
     16.48200000	     -5.80146525	     -4.77054022	      4.57513529	      0.75613634	      0.92947346	      0.50117476	      8.94788859	      3.12990285	    -18.45589029	     11.73747196	     11.73747196	     10.28938140	      1.94809110	     -6.94556846	     32.79165226	     -9.11894148	      1.93569971	     29.20990244	     29.20990244	     11.34302310	    -12.34976207	     10.24647019	     -9.82225070	      7.72750086	      3.17273681	     40.93063190	    -16.37407580	     -3.42531522	     62.91108902	     45.28036662	      0.00000000	      0.00000000	     -5.54109997	     -6.43986331	      1.22292625	     26.12517223	     45.43792820	      0.00000000	      0.00000000
